<?xml version="1.0" encoding="UTF-8" standalone="no"?>
<svg
   xmlns:dc="http://purl.org/dc/elements/1.1/"
   xmlns:cc="http://creativecommons.org/ns#"
   xmlns:rdf="http://www.w3.org/1999/02/22-rdf-syntax-ns#"
   xmlns:svg="http://www.w3.org/2000/svg"
   xmlns="http://www.w3.org/2000/svg"
   viewBox="0 0 302.29333 48"
   height="48"
   width="302.29333"
   xml:space="preserve"
   id="svg2"
   version="1.1"><metadata
     id="metadata8"><rdf:RDF><cc:Work
         rdf:about=""><dc:format>image/svg+xml</dc:format><dc:type
           rdf:resource="http://purl.org/dc/dcmitype/StillImage" /></cc:Work></rdf:RDF></metadata><defs
     id="defs6" /><g
     transform="matrix(1.3333333,0,0,-1.3333333,0,48)"
     id="g10"><g
       transform="scale(0.1)"
       id="g12"><path
         id="path14"
         style="fill:#ed1c24;fill-opacity:1;fill-rule:nonzero;stroke:none"
         d="m 2142.3,84.9844 c -22.75,0 -41.22,-19.0039 -41.22,-42.4453 C 2101.08,19.0234 2119.55,0 2142.3,0 c 22.61,0 41.13,19.0234 41.13,42.5391 0,23.4414 -18.52,42.4453 -41.13,42.4453 v 0 0" /><path
         id="path16"
         style="fill:#ed1c24;fill-opacity:1;fill-rule:nonzero;stroke:none"
         d="m 2194.41,123.676 h -79.7 c 98.23,94.207 63.66,149.32 12.05,181.402 26.21,21.348 66.13,46.012 67.65,-0.723 v -180.679 0 z m -267.64,30.457 c -11.56,9.164 -19.66,16.25 -22.47,17.996 -3.08,3.57 -17.74,11.363 -17.37,11.465 7.35,65.183 -19.76,118.773 -36,144.261 h 75.84 v -173.722 0 z m -100.01,-18.235 c -8.51,-4.769 -14.34,13.09 -14.34,13.09 -18.23,50.082 2.42,41.867 2.42,41.867 6.21,-3.039 14.7,-5.812 22.09,-9.91 0,-0.742 0.48,-1.73 0.41,-2.398 0,0 4.61,-33.281 -10.58,-42.649 v 0 z m -180.18,30.825 c -11.26,13.586 -27.36,38.355 -35.88,68.929 0,0 -8.82,38.621 -38.78,-5.043 0,0 -7.62,-11.015 -19.71,-25.57 17.82,37.383 19.13,72.066 -5.9,122.816 h 100.27 v -161.132 0 z m -144.01,-9.52 -0.12,-0.14 c -11.5,-12.93 -25.44,-18.04 -38.74,-20.739 l -1.28,0.352 36.88,-43.2776 c 7.29,0 24.3,8.3356 37.8,19.2896 0,0 53.63,43.402 67.13,65.765 0,0 21.63,-34.465 42.34,-57.601 V 93.3984 l 72.58,-0.5312 V 327.855 h 23.73 c 0,0.579 85.41,-49.027 92.12,-121.257 -7.03,4.554 -25.64,12.363 -25.64,12.363 -100.41,47.309 -47.76,-80.129 -47.76,-80.129 61.76,-116.6445 111.7,-8.32 111.7,-8.32 3.27,8.051 5.9,16.019 8,23.937 15.94,-9.969 36.11,-26.64 45.46,-39.254 V 93.3984 l 72.48,-0.5312 V 327.855 c 29.44,0.274 41.74,-8.703 41.74,-8.703 109.27,-68.113 19.19,-155.129 -12.49,-189.226 -33.33,-35.8791 -1.39,-37.0588 -1.39,-37.0588 h 239.78 V 304.355 c 0,0 15.9,112.129 -173.77,18.043 -27.96,11.918 -46.48,16.594 -53.07,18.399 -6.57,1.894 -23.99,3.023 -23.99,3.023 h -16.81 v 0.051 h -72.48 v -0.051 h -87.15 l -0.07,0.051 h -94.69 c 0,0 0,0 0.04,-0.051 h -25.74 v 0.051 h -72.58 v -0.051 h -197.91 v -15.965 c 0,0 113.08,-62.433 53.9,-170.652 v 0 0" /><path
         id="path18"
         style="fill:#00a650;fill-opacity:1;fill-rule:nonzero;stroke:none"
         d="m 1348.37,84.9844 c -22.75,0 -41.14,-19.0039 -41.14,-42.4453 C 1307.23,19.0234 1325.62,0 1348.37,0 c 22.77,0 41.2,19.0234 41.2,42.5391 0,23.4414 -18.43,42.4453 -41.2,42.4453 v 0 0" /><path
         id="path20"
         style="fill:#00a650;fill-opacity:1;fill-rule:nonzero;stroke:none"
         d="m 1312.84,141.977 c -16.16,38.648 1.72,97.5 63.35,136.128 V 131.129 l 0.28,-8.375 c -23.05,1.254 -53.61,-4.555 -63.63,19.223 v 0 z m -649.512,12.332 c -11.605,9.203 -19.66,16.16 -22.449,17.961 -3.09,3.57 -17.793,11.378 -17.422,11.5 7.313,65.183 -19.691,118.785 -35.961,144.175 h 75.832 v -173.636 0 z M 563.313,136.094 c -8.5,-4.824 -14.368,13.07 -14.368,13.07 -18.16,50.047 2.442,41.867 2.442,41.867 6.25,-3.019 14.711,-5.843 22.222,-10.051 -0.089,-0.632 0.336,-1.515 0.336,-2.332 0,0 4.59,-33.25 -10.632,-42.554 v 0 z M 188.699,305.266 c -1.023,7.839 -3.64,16.047 -9.148,22.679 h 77.527 V 153.953 c -9.183,6.285 -17.89,11.692 -27.57,17.102 1.394,3.781 2.773,7.84 4.308,12.437 25.368,76.196 -6.73,108.539 -45.117,121.774 v 0 z m -50.84,-60.637 c -0.179,17.734 0.516,36.805 3.11,50.664 8.957,-2.031 16.289,-5.316 22.312,-9.621 -0.195,-1.207 -0.461,-2.418 -0.742,-3.656 h 0.281 c -2.914,-7.383 -11.234,-25.879 -24.961,-37.387 v 0 z m 1307.881,99.242 v 0.121 H 735.918 v 0.047 h -72.59 v -0.047 h -87.14 c -0.036,0.047 -0.036,0.047 -0.036,0.047 H 481.43 c 0,0 0.074,0 0.074,-0.047 H 0 v -16.047 h 149.098 c 3.691,-3.379 8.336,-8.793 11.425,-16.054 -4.168,0.582 -8.355,1.078 -12.332,1.402 0.055,0.039 0.055,0.039 0.055,0.039 0,0 -0.742,0.043 -2.137,0.086 -13.214,1.004 -24.699,0.633 -31.867,0.148 -9.929,-0.597 -19.2889,-1.765 -23.7107,-4.433 -1.1993,-0.891 -14.4141,-56.61 -2.9297,-90.227 l 52.3044,-21.832 c 0,0 31.657,25.774 42.473,61.715 12.328,-37.566 -8.109,-92.875 -34.535,-120.398 -0.145,0.261 -0.145,0.441 -0.215,0.371 -0.973,-0.953 -2.949,-1.981 -2.949,-1.981 -15.793,-7.277 -32.168,1.078 -32.168,1.078 C 58.2422,158.402 56.8438,251.977 57.2891,303.855 L 0.601563,293.852 c -1.484376,-28.071 2.804687,-57.293 2.804687,-57.293 0,0 5.57031,-95.911 105.00775,-130.286 h 0.031 c 66.356,-18.7457 99.879,26.11 99.879,26.11 4.934,6.82 8.641,12.512 11.731,17.969 12.718,-8.2 26.64,-17.457 37.023,-24.313 V 93.1836 l 72.5,-0.4922 V 327.945 h 53.563 V 93.1836 l 72.445,-0.4922 V 327.945 h 0.09 v 0 h 23.812 c 0,0.692 85.395,-48.996 92,-121.121 -6.996,4.524 -25.582,12.313 -25.582,12.313 -100.336,47.371 -47.746,-80.16 -47.746,-80.16 54.637,-119.3129 111.711,-8.34 111.711,-8.34 3.309,8.125 5.887,16.058 8.078,23.953 15.789,-9.934 36.09,-26.676 45.379,-39.254 V 93.2695 h 72.59 v 234.6755 0 h 0.055 53.504 V 93.1836 l 72.554,-0.4922 V 327.945 h 82 C 894.141,223.199 898.738,166.23 898.738,166.23 882.695,33.5977 1182.11,70.3594 1182.11,70.3594 l -7.2,28.7969 c -23.13,-6.3985 -153.22,-28.7969 -203.125,20.7387 -46.004,45.703 41.385,186.582 55.235,208.05 h 17.74 c -6.04,-33.652 -15.93,-114.531 0.95,-169.031 0,0 12.49,-55.98 54.82,-14.019 0,0 36.38,41.316 62.39,76.816 10.9,-85.988 50.33,-128.3126 50.33,-128.3126 h 22.13 c -7.49,27.9806 -25.77,70.0786 -11.34,156.4686 14.96,89.278 -38.54,39.278 -38.54,39.278 -28.54,-26.563 -72.72,-90.817 -72.72,-90.817 -10.61,42.469 4.37,100.34 12.43,129.617 h 250.98 v -13.117 c -49.18,-25.39 -226.52,-164.476 -101.44,-214.137 15.38,-5.773 31.82,-6.6441 48.33,-7.8238 0,0 33.79,-0.0703 71.68,0 h 53.97 V 343.871 h -2.99 v 0 0" /></g></g></svg>